<svg width="148" height="354" viewBox="0 0 148 354" fill="none" xmlns="http://www.w3.org/2000/svg">
<path d="M147.862 86.8045C139.655 84.6133 131.84 81.1549 124.698 76.5539L119.088 72.6829L114.222 68.8118L110.446 65.3666L107.073 61.9756L103.042 57.3303L99.2273 52.4605L95.9391 47.7533L92.7437 42.6203C92.2098 41.637 91.4593 40.7932 91.1963 39.6164C91.422 39.3786 91.7173 39.2186 92.0396 39.1596C93.734 38.8654 95.0648 37.7118 96.6818 37.224C97.4555 36.7053 98.4304 36.4963 99.2118 35.8537C101.239 35.1182 102.918 33.5853 104.705 32.2304L109.347 28.5064C110.895 27.9567 112.798 27.9103 114.446 27.6238C114.903 27.4148 115.699 27.7632 115.684 27.0277C114.685 25.7204 113.552 24.5216 112.303 23.4508L108.643 19.9591L108.071 19.4404L107.831 19.3553C106.293 21.6617 104.567 23.837 102.67 25.8586L98.4072 30.8678L92.9913 36.7905L91.0261 38.4628C90.908 38.548 90.7616 38.5842 90.6175 38.564C90.4733 38.5438 90.3425 38.4687 90.2524 38.3544L88.4342 35.3659L85.8809 30.0626L85.6334 29.5129C84.0859 26.8187 83.1188 23.8689 81.7648 21.043C81.0054 19.5046 80.394 17.8973 79.9389 16.2429H122.493C123.708 16.1865 124.887 15.8041 125.905 15.1358C126.109 14.9696 126.274 14.7595 126.387 14.5209C126.499 14.2824 126.556 14.0215 126.554 13.7577C126.508 13.1113 126.234 12.5023 125.781 12.039L121.703 8.22986C120.93 7.81953 120.651 6.68144 119.785 6.68144L115.227 11.3267L113.595 12.7203C100.922 12.7203 86.6159 12.8906 82.4147 12.8906C82.1263 12.4444 81.9657 11.9276 81.9505 11.3964C81.9505 9.35246 81.6875 7.23887 81.8577 5.11753C82.2832 3.60782 83.8074 2.90329 84.7359 1.68778V1.28519C83.026 0.650337 81.1381 0.634853 79.3199 0.425816L74.4998 0L74.3373 0.185811L74.7164 4.21945L74.8944 9.63892C74.7474 10.5138 75.2348 12.6506 74.1207 12.8674H44.5575C42.2983 12.8674 31.126 10.9164 31.126 10.9164L30.3137 11.6906C30.9481 13.6416 32.2247 15.2287 33.3466 17.0326C33.9268 17.6597 35.4356 17.412 36.364 17.1565C38.6851 16.7849 40.3176 16.1578 42.7703 16.2816H71.227C71.0259 17.4043 70.1284 18.4107 69.6796 19.4249L61.8265 31.4562L57.5402 37.9363L53.1301 44.0758L50.9792 47.1107L46.4995 53.1805L42.3989 58.5071L36.364 66.0014L30.0506 73.6274L27.451 76.7243L20.0157 85.1632L19.7294 85.4806L16.0079 89.5684L10.2361 95.7621L3.55903 102.413L0.0618962 105.92L0 106.183C0 106.237 0.0696332 106.307 0.177951 106.237C1.23494 105.473 2.24036 104.641 3.18765 103.744L9.05232 98.6654L20.2014 88.3684L29.6096 79.3488L36.952 71.8235L39.0255 69.6789L43.513 64.6466L51.3351 55.5961L56.5963 48.992L58.1979 47.0797L58.3217 47.2268C58.5102 49.2677 58.5541 51.3193 58.4532 53.3663L58.6002 59.2658V65.7924L58.693 75.0829C58.9638 76.492 57.4242 76.7862 56.6969 77.243L48.0933 81.2147L43.9385 83.065C42.6387 83.5218 41.4085 84.5051 39.9772 84.4122V84.6599C40.9753 86.1309 41.7567 87.6639 42.6387 89.1968L46.5072 95.2511C46.7239 95.3131 46.9096 95.7389 47.1417 95.6073L47.1881 95.0498C47.4146 94.2112 47.5622 93.3533 47.6291 92.4872C47.9463 91.2407 47.691 90.0097 48.3409 88.8639L52.782 86.3167L56.3719 84.2341L63.5364 79.7437L68.0239 76.7165L73.9505 72.4584L81.4554 66.5821L87.939 61.0078C89.6066 59.4649 91.1582 57.801 92.5812 56.0296C92.852 55.6425 93.471 55.3251 93.4168 54.8373H93.2388C90.9177 56.3858 88.5966 58.2516 86.2755 59.9162L80.0859 64.1279L77.4631 65.8079L71.7377 69.377L66.8943 72.0016L65.9968 72.3422C65.9023 72.2971 65.8207 72.2286 65.7598 72.1433C65.6989 72.058 65.6607 71.9586 65.6486 71.8545C65.6099 69.9964 65.5558 67.8905 65.579 66.2724L65.4397 55.0309L65.3237 49.7508L65.4088 43.5958L65.5713 43.1622C66.5848 42.388 67.6525 41.8693 68.6661 41.1493C68.9601 40.8783 69.3701 40.2125 68.5577 40.0035C67.1719 39.6835 65.8196 39.2324 64.519 38.6563C64.519 38.5247 64.5654 38.4628 64.5654 38.3389L67.7608 33.6936C69.3469 31.1 71.2425 29.0019 72.8905 26.3541C73.9969 24.9528 74.817 23.3734 76.0859 22.096C76.9988 22.3205 77.9118 22.3515 78.8867 22.5218C78.9732 22.4736 79.0414 22.3981 79.0806 22.3071C79.1198 22.216 79.1278 22.1146 79.1033 22.0185L75.8228 16.2584H79.1188C79.6758 18.674 80.1401 21.4224 80.8751 23.7683C81.1001 24.086 81.2265 24.463 81.2387 24.8522C81.7301 25.8574 82.1164 26.9108 82.3915 27.9955C82.7397 28.5374 82.8171 29.1568 83.1652 29.7142C83.4805 30.7411 83.8604 31.747 84.3026 32.7259L86.2987 37.7737C87.3217 39.6194 88.2387 41.5219 89.0454 43.4719L91.7533 48.7753L91.8307 49.2088C92.4197 50.0166 92.9375 50.874 93.3781 51.7715L97.5174 58.3755C100.334 62.2465 103.042 66.3653 106.299 69.9422L110.384 74.301L113.99 77.8159L117.943 81.114C122.436 84.6954 127.248 87.8571 132.319 90.5594L137.324 92.9749L141.061 94.5234C141.197 94.5625 141.341 94.5637 141.477 94.5269C141.614 94.49 141.737 94.4165 141.835 94.3143C143.785 92.0846 145.425 89.2432 147.769 87.4548C147.829 87.4283 147.882 87.3869 147.921 87.3345C147.961 87.2821 147.987 87.2205 147.996 87.1554C148.005 87.0904 147.998 87.024 147.975 86.9626C147.951 86.9012 147.912 86.8468 147.862 86.8045Z" fill="white"/>
<path d="M102.268 69.9112C98.887 66.3963 93.3396 65.684 88.9372 67.5344C83.4671 69.857 78.6625 75.5087 78.3452 82.1747C78.3452 85.6586 79.5213 88.9723 82.4613 90.5207C82.9818 90.7808 83.5635 90.8931 84.1433 90.8453C84.7231 90.7975 85.2787 90.5915 85.7496 90.2497C88.8444 87.3619 90.5465 83.3437 91.5369 79.3411C92.1094 76.4688 92.9837 72.59 91.1577 70.0506C91.4904 69.4312 92.2332 69.7796 92.7052 69.5163C94.5152 69.292 96.3494 69.6555 97.9373 70.5531C99.5253 71.4508 100.783 72.8352 101.525 74.5023C103.97 79.5191 101.935 85.2948 99.4132 89.5916C96.9373 93.4627 93.2932 96.1647 89.8192 98.3634L89.8811 98.4254C91.5369 98.255 92.976 97.4034 94.4537 96.7453C98.8081 94.6438 102.261 91.0434 104.179 86.6032C105.634 82.7321 106.949 77.6997 104.86 73.6584C104.22 72.268 103.343 70.9999 102.268 69.9112ZM89.6955 75.0365C88.6432 78.7914 87.4827 82.4921 85.0532 85.5967C84.6122 85.9838 84.0552 86.4948 83.4207 86.2006C82.1441 85.2328 81.765 83.5683 81.8733 81.896C82.0237 79.6395 82.728 77.455 83.9237 75.536C85.1194 73.617 86.7697 72.0227 88.7283 70.8944C89.239 70.8248 89.796 70.3138 90.2061 70.7396C90.5233 72.1564 89.8811 73.6042 89.6877 75.0365H89.6955Z" fill="white"/>
<path d="M49.1996 114.397C47.8202 122.284 48.3508 130.387 50.747 138.026C52.658 144.808 57.4008 150.414 62.5072 154.981C63.1561 155.395 63.9134 155.606 64.6824 155.586C65.4514 155.567 66.1972 155.319 66.8245 154.873C68.0547 153.913 68.2559 152.411 68.2094 151.002C67.8481 150.18 67.6577 149.292 67.6497 148.394C67.6417 147.495 67.8164 146.605 68.163 145.776L70.6234 141.061C71.1108 140.109 71.7143 139.288 72.1708 138.351L76.7588 130.4L81.0916 123.2L82.7318 120.181C81.1225 122.139 79.3507 124.361 77.8033 126.374L74.8246 130.609L70.7936 136.029C68.9135 138.259 67.0257 140.612 65.0372 142.834C63.8535 143.802 62.8709 145.559 61.2693 145.048C59.3465 143.948 57.7458 142.362 56.6271 140.45C54.3192 136.033 52.9818 131.173 52.7044 126.196C52.07 118.137 54.8166 111.231 55.8998 103.744C56.1106 102.041 55.8958 100.312 55.2747 98.7121C54.6536 97.1123 53.6455 95.6917 52.3408 94.5776C51.2963 93.7259 50.5845 92.3865 49.246 92.2936C49.2195 92.2995 49.1948 92.3116 49.1739 92.329C49.153 92.3463 49.1366 92.3684 49.126 92.3934C49.1154 92.4184 49.1109 92.4456 49.113 92.4727C49.115 92.4998 49.1235 92.526 49.1377 92.5491C50.2595 93.9582 50.4684 95.8628 50.9094 97.7209C50.9946 98.9519 50.9094 100.043 50.9946 101.189C50.8011 103.125 50.6773 105.06 50.3756 106.918L49.1996 114.397Z" fill="white"/>
<path d="M89.1382 111.409C88.9737 111.56 88.841 111.743 88.748 111.946C88.655 112.15 88.6035 112.37 88.5966 112.593C89.262 112.137 89.587 111.324 90.1904 110.681C92.6895 107.7 95.7611 104.758 99.6373 105.401C104.674 106.702 106.283 112.485 107.312 117.239L107.947 123.123C108.156 124.749 108.311 126.413 109.247 127.691C109.897 128.604 110.748 129.324 111.901 129.107C112.456 128.907 112.951 128.568 113.338 128.122C113.726 127.676 113.992 127.138 114.113 126.56C114.554 123.185 113.796 119.592 113.092 116.403C112.69 115.544 112.347 114.659 112.063 113.755C110.314 109.017 107.111 103.458 102.005 102.598C96.2021 101.514 92.3336 106.965 89.1382 111.409Z" fill="white"/>
<path d="M99.4439 258.06C92.2562 257.944 85.6101 259.988 80.1013 264.548L75.7763 268.651C75.6309 268.815 75.4456 268.94 75.2382 269.011C75.0309 269.083 74.8085 269.101 74.5926 269.061C74.1783 268.743 73.8859 268.292 73.7647 267.784C72.5964 263.835 72.8285 258.803 72.991 254.692C73.4475 249.52 74.1361 244.542 74.9794 239.487L76.1013 233.432L76.6661 230.56C76.8827 229.786 77.0065 228.555 78.0355 228.47C83.2503 227.587 88.4032 226.325 92.8365 223.53C95.0514 222.11 96.7246 219.986 97.587 217.499C97.8284 216.565 97.8456 215.587 97.6372 214.645C97.4287 213.703 97.0006 212.824 96.3878 212.079C94.8404 210.128 92.3645 210.26 90.5076 208.983C90.4898 208.917 90.4905 208.847 90.5096 208.782C90.5287 208.716 90.5655 208.657 90.6159 208.611C94.167 206.004 97.5665 203.197 100.798 200.203L104.295 196.255C106.385 193.627 108.2 190.791 109.711 187.792C112.297 182.643 113.534 176.921 113.309 171.162C112.891 164.411 110.585 158.318 105.819 153.905C103.918 152.1 101.729 150.625 99.3433 149.539C91.6914 145.668 81.3702 147.417 74.4224 152.016C68.6505 155.887 62.9793 162.081 60.5886 169.219C58.9947 173.864 58.3216 180.058 59.7452 184.835C60.8748 189.48 64.7743 193.638 69.1302 194.644C72.0858 194.505 74.02 191.965 75.9543 189.682C78.1593 186.383 80.2483 183.163 81.5327 179.416C83.4901 175.436 84.0085 170.899 84.8132 166.455C84.9225 166.242 84.9807 166.006 84.9834 165.766C85.3857 163.715 85.0608 161.547 85.1768 159.425L84.6584 156.46C84.1457 154.853 83.4826 153.298 82.6778 151.815C83.289 151.234 84.0395 151.405 84.8209 151.257C89.819 150.189 94.5541 151.497 98.7476 153.689C104.635 156.894 107.722 163.389 108.28 170.264C108.32 174.131 107.812 177.983 106.771 181.707C104.763 189.455 100.83 196.569 95.3355 202.386C93.4632 204.81 91.1111 206.544 88.8674 208.41L88.6353 208.472C87.2117 208.077 86.7861 206.404 86.4534 204.988C85.6797 202.952 86.0124 200.466 85.2929 198.368C84.7435 197.021 83.5211 195.558 82.1516 195.411C79.405 195.055 77.2773 196.471 75.0336 197.408C75.0321 197.468 75.0472 197.527 75.0772 197.579C75.1073 197.631 75.1511 197.674 75.2038 197.702C75.8382 197.873 76.3179 198.732 76.8363 199.15C78.4379 202.038 77.935 205.088 77.61 208.325L75.699 219.504L74.9253 222.872C74.8805 223.06 74.7844 223.232 74.6478 223.369C74.5112 223.505 74.3395 223.601 74.1516 223.646C71.9448 224.054 69.7028 224.241 67.459 224.204C62.6079 223.584 57.4009 223.786 53.2152 221.223C52.2403 220.874 51.3273 220.286 50.3989 219.93C50.4459 220.2 50.5957 220.441 50.8167 220.604C52.8034 222.375 55.0241 223.865 57.4164 225.032C60.3874 226.131 63.2733 227.548 66.577 227.765C68.6428 228.47 70.9175 228.539 73.138 228.779C73.9968 229.244 73.4011 230.328 73.4243 231.055L71.8769 238.991C71.2192 242.165 70.6544 245.425 70.0974 248.599L69.0219 253.941L68.2482 260.359L67.6911 266.638C67.6911 270.865 67.8691 274.837 69.548 278.46C70.2676 279.684 71.4823 280.829 72.844 280.543C73.4001 280.467 73.9296 280.257 74.3876 279.932C74.8455 279.607 75.2184 279.177 75.4746 278.677C77.9118 273.389 81.5481 268.14 86.1439 264.904C88.0528 263.454 90.2347 262.405 92.5587 261.82C94.8827 261.234 97.3009 261.125 99.6683 261.497C101.826 261.725 103.894 262.483 105.688 263.704C112.891 269.603 112.922 281.023 110.786 290.027C108.752 298.032 104.249 305.302 99.6141 311.999L96.2949 316.304L93.6875 319.486L90.1362 323.357C88.5269 325.075 86.9795 326.787 85.3548 328.381L78.1439 335.28L74.8556 338.376L69.6641 342.859L68.5345 343.749L64.2172 347.334C61.6099 349.386 58.9793 351.639 56.2945 353.636C56.2671 353.658 56.245 353.686 56.2298 353.717C56.2146 353.749 56.2067 353.783 56.2067 353.818C56.2067 353.853 56.2146 353.888 56.2298 353.919C56.245 353.951 56.2671 353.978 56.2945 354C57.9193 353.342 59.2655 352.126 60.898 351.275L69.3623 345.646L74.7318 341.644L81.6952 336.178L86.2213 332.214L90.6314 328.172L95.9622 322.869L99.6296 318.866L103.63 314.105L104.287 313.207L108.929 306.378C110.103 304.535 111.163 302.622 112.102 300.649L114.376 295.493L116.133 290.228L117.224 285.544C118.446 278.801 117.301 271.508 113.827 266.189C110.554 261.048 105.038 258.656 99.4439 258.06ZM81.8267 159.89C81.6333 161.764 81.2155 163.575 80.9292 165.441L79.3818 171.449C77.8389 176.792 75.2219 181.763 71.6912 186.058C70.755 187.088 69.4629 187.916 68.0703 187.266C64.9755 185.369 63.9542 181.475 63.8768 177.689C64.079 171.891 66.0922 166.303 69.6331 161.709C72.5655 157.776 76.3025 154.385 80.581 152.651C80.9292 152.334 81.7571 152.001 81.9041 152.744C82.3915 155.09 81.8808 157.583 81.8189 159.89H81.8267ZM79.7841 218.459C81.0298 215.501 81.2232 212.01 83.1575 209.362C83.4187 209.073 83.7458 208.852 84.1109 208.717C84.476 208.583 84.8682 208.538 85.2542 208.588C85.9668 208.787 86.6413 209.104 87.2503 209.525V209.772C86.6525 210.357 85.9936 210.876 85.2851 211.321C85.2403 211.421 85.1718 211.508 85.0855 211.576C84.9992 211.643 84.8977 211.688 84.79 211.708C84.4573 212.157 83.3818 212.358 83.7377 213.101C85.0917 212.559 86.2058 211.352 87.4902 210.577C87.6269 210.499 87.7853 210.468 87.9415 210.487C88.0978 210.507 88.2435 210.576 88.3567 210.686C89.0579 211.339 89.4794 212.238 89.5328 213.194C89.0995 218.614 83.73 220.495 80.0085 222.152C79.6681 222.098 79.2348 222.361 78.9872 222.051C79.0259 220.836 79.5752 219.698 79.7764 218.459H79.7841Z" fill="white"/>
<path d="M104.605 343.262C106.315 343.282 107.971 342.66 109.247 341.52C109.846 340.997 110.326 340.352 110.655 339.629C110.984 338.905 111.154 338.119 111.154 337.324C111.154 336.528 110.984 335.742 110.655 335.018C110.326 334.295 109.846 333.65 109.247 333.127C107.973 331.983 106.316 331.362 104.605 331.385C101.007 331.385 98.0823 334.049 98.0823 337.316C98.0896 338.111 98.2643 338.895 98.5949 339.618C98.9255 340.341 99.4046 340.987 100.001 341.512C101.265 342.648 102.906 343.271 104.605 343.262ZM98.7786 337.324C98.7848 336.614 98.9403 335.913 99.2349 335.268C99.5295 334.622 99.9566 334.046 100.489 333.576C101.629 332.577 103.093 332.026 104.608 332.026C106.124 332.026 107.588 332.577 108.728 333.576C109.26 334.046 109.686 334.622 109.979 335.268C110.273 335.914 110.426 336.614 110.431 337.324C110.431 340.25 107.815 342.635 104.605 342.635C103.088 342.65 101.619 342.098 100.489 341.086C99.9545 340.613 99.5261 340.033 99.2315 339.384C98.9368 338.734 98.7825 338.029 98.7786 337.316V337.324Z" fill="white"/>
<path d="M101.99 334.66C101.99 334.351 101.812 334.002 100.984 334.002V333.801H104.079C106.036 333.801 107.173 334.428 107.173 335.674C107.173 336.921 106.144 337.339 105.046 337.478L107.367 340.095C107.498 340.272 107.666 340.418 107.86 340.523C108.054 340.627 108.269 340.687 108.489 340.699V340.9H106.593L103.785 337.602H103.135V340.018C103.135 340.335 103.313 340.668 104.164 340.668V340.869H100.922V340.668C101.742 340.668 101.928 340.327 101.928 340.018V334.598L101.99 334.66ZM103.196 337.215C104.906 337.169 105.951 336.843 105.951 335.667C105.951 334.49 105.131 334.188 104.071 334.188C103.297 334.188 103.204 334.188 103.204 334.691V337.192L103.196 337.215Z" fill="white"/>
</svg>
